PathFileType	4	(X/Y/Z)	D:\TRACE\spotREDO_2-26-24\spot_baseline_3-v60.trc
DataRate	CameraRate	NumFrames	NumMarkers	Units	OrigDataRate	OrigDataStartFrame	OrigNumFrames
100.00	100.00	      42	9	mm	100.00	1751	      7000
Frame#	Time	front left toe			Front right toe			aft left toe			aft right toe			Arm			FL body			FR body			AL Body			AR Body			
		X1	Y1	Z1	X2	Y2	Z2	X3	Y3	Z3	X4	Y4	Z4	X5	Y5	Z5	X6	Y6	Z6	X7	Y7	Z7	X8	Y8	Z8	X9	Y9	Z9	

1751	17.500	-211.48766	20.51424	-275.01651	309.90854	25.62023	-175.96620	-199.23257	17.65744	219.62405	304.17972	102.15516	307.54294	49.61578	806.54877	-431.70395	-34.93188	547.04724	-414.31613	120.13044	552.20441	-402.82352	-111.13411	559.18665	466.39813	38.48139	558.96948	479.18927	
1752	17.510	-211.41951	20.65641	-275.00616	310.00500	25.69948	-176.01471	-199.11641	17.55639	219.66336	305.51645	90.71677	309.07269	49.37743	806.91479	-431.64230	-35.25434	547.64349	-414.35648	119.97581	552.61115	-402.82898	-111.25360	558.96637	466.40302	38.50465	558.61713	479.11938	
1753	17.520	-211.44945	20.65512	-274.92343	309.84863	25.73392	-176.20583	-199.08412	17.51738	219.73241	305.36588	79.85791	310.62494	49.34629	807.43573	-431.31363	-35.44254	548.03217	-414.46179	119.85115	552.98096	-402.82281	-111.14201	558.65552	466.50589	38.43229	558.23145	479.23596	
1754	17.530	-211.45322	20.66625	-274.91025	309.95792	25.70597	-176.12817	-198.95692	17.39343	219.77342	305.91791	68.81593	312.25198	49.22200	807.88043	-431.00061	-35.52602	548.34827	-414.42587	119.82745	553.16962	-402.84586	-110.93243	558.24609	466.65677	38.34707	557.94952	479.32162	
1755	17.540	-211.47093	20.66380	-274.91736	309.75421	25.54825	-176.16849	-198.99313	17.40991	219.75142	306.90256	58.84887	313.95871	49.16628	808.03442	-430.65994	-35.69219	548.55127	-414.24228	119.75385	553.26886	-402.75171	-109.34925	558.29126	467.10321	38.29008	557.84918	479.38797	
1756	17.550	-211.49719	20.62902	-274.87234	309.91272	25.58141	-176.07562	-199.08884	17.48577	219.74190	307.45746	48.94011	314.21820	49.08669	807.99219	-430.54895	-35.60089	548.51843	-413.93948	119.70095	553.26959	-402.61810	-109.43683	558.33557	467.20166	38.30316	557.85559	479.48117	
1757	17.560	-211.49745	20.63369	-274.89099	309.89258	25.55347	-176.05527	-199.15277	17.59498	219.77486	308.08871	39.04433	314.32251	49.09414	807.93042	-430.47318	-35.60138	548.48608	-413.62231	119.69517	553.27686	-402.42740	-109.50242	558.47028	467.37311	38.39841	557.96173	479.76199	
1758	17.570	-211.42641	20.64744	-274.89313	309.89673	25.59874	-176.11937	-199.03242	17.58784	219.72751	309.07684	31.96741	312.02786	49.20367	807.86945	-430.33524	-35.44892	548.41461	-413.39719	119.74696	553.27808	-402.12280	-109.33965	558.52954	467.73193	38.51562	558.03040	480.14221	
1759	17.580	-211.38831	20.61436	-274.92999	309.86429	25.31273	-175.98497	-198.62564	17.66005	219.61635	309.83127	30.84591	312.65332	49.25241	807.85486	-430.18036	-35.27683	548.03888	-413.13898	120.04927	553.22388	-401.76651	-109.69491	558.98621	467.91681	37.91407	558.91345	480.42462	
1760	17.590	-211.14728	20.11792	-275.35898	309.65952	24.72936	-175.62640	-198.04102	18.61915	219.67683	312.68307	33.05523	314.18048	49.12528	807.54950	-430.31186	-34.82650	547.02869	-412.85779	120.46608	552.64374	-401.15277	-110.78596	560.46472	468.04388	36.81688	561.12860	480.73718	
1761	17.600	-211.04063	20.34928	-275.53897	309.59235	24.78945	-175.80089	-198.36246	18.40159	219.27570	311.55560	33.27617	314.47113	47.97878	806.78809	-430.55829	-34.36354	546.95178	-412.71790	120.80717	552.71198	-400.59262	-111.42319	560.31421	467.15039	36.07497	562.09674	481.12411	
1762	17.610	-211.15533	20.45853	-275.42664	309.31604	25.05795	-175.69897	-199.28600	18.40439	219.41927	311.73712	33.24029	313.94455	48.42943	806.12738	-430.50006	-34.28884	547.26929	-412.34402	120.72429	552.90277	-400.15210	-113.78983	561.83862	468.19812	35.48632	562.22327	481.56754	
1763	17.620	-211.30328	20.60857	-275.31430	309.39835	25.03976	-175.66547	-199.30669	18.36123	219.36391	311.68228	33.38887	314.49747	49.29832	806.63214	-430.05951	-34.33543	547.48218	-411.77518	120.68347	553.06183	-399.71283	-113.89354	561.88593	468.74200	35.06020	562.42065	481.79596	
1764	17.630	-211.26851	20.52742	-275.27567	309.30145	25.07327	-175.72974	-199.12885	18.45551	219.42488	311.54956	33.23405	314.26956	50.15504	807.37347	-429.36023	-34.47824	547.94775	-411.32843	120.34391	553.33295	-399.31921	-114.31167	562.23999	469.01999	35.05085	562.15619	482.37512	
1765	17.640	-211.23671	20.44469	-275.24542	309.21173	25.11469	-175.78442	-199.08405	18.25202	219.39227	311.53043	33.00433	314.33481	50.00903	807.97681	-428.39743	-34.75116	548.44409	-411.06122	120.19933	553.71973	-398.99411	-114.43947	562.03937	469.52020	34.55080	562.02814	482.76758	
1766	17.650	-211.30887	20.41490	-275.21030	309.25916	25.05523	-175.66339	-199.14293	18.05440	219.51524	311.72174	32.85887	314.32233	49.63477	808.48145	-427.65540	-34.98972	548.90692	-410.59750	119.90865	554.04694	-398.61212	-114.34261	561.45270	470.15817	34.80185	561.60406	483.72888	
1767	17.660	-211.28676	20.34961	-275.20978	308.78571	25.01187	-175.95810	-199.13994	18.09362	219.52486	311.77997	32.85159	314.37781	49.18448	808.77484	-427.17630	-35.36011	549.26202	-410.04678	119.78129	554.38745	-397.86984	-114.57191	561.24304	470.65771	34.70930	561.15649	484.13129	
1768	17.670	-211.32295	20.37001	-275.11261	308.77628	25.12521	-175.93581	-199.11383	17.96568	219.59961	311.78873	32.84419	314.51056	48.51275	808.96765	-426.57877	-35.53476	549.35809	-409.55685	119.66208	554.56177	-397.36179	-114.63247	560.96948	471.16647	34.51640	560.96155	484.20483	
1769	17.680	-211.37956	20.34546	-275.01865	309.22861	25.09785	-175.67267	-199.11754	17.98133	219.65118	311.71704	32.77647	314.54892	48.20070	808.85376	-426.09021	-35.82346	549.30511	-409.08685	119.41856	554.63812	-396.97583	-114.73020	560.70447	471.92661	34.69806	560.69476	484.76642	
1770	17.690	-211.46619	20.32457	-274.97998	309.21170	25.16291	-175.65858	-199.10063	18.01478	219.70081	311.65585	32.75989	314.54514	48.02624	808.94812	-425.28046	-36.16199	549.36700	-408.48071	119.03094	554.66119	-396.45551	-114.61706	560.58472	472.43732	34.65649	560.60101	485.40854	
1771	17.700	-211.53844	20.29426	-274.91440	308.79993	25.16101	-175.81882	-199.11362	18.03481	219.73048	311.69125	32.67728	314.57407	47.86538	808.94623	-424.74481	-36.27481	549.33405	-407.84714	118.71111	554.74036	-395.90701	-114.53410	560.60962	473.18524	34.59968	560.52679	486.01285	
1772	17.710	-211.54674	20.35427	-274.88788	308.80603	25.24575	-175.78944	-198.99330	18.11238	219.82355	311.78177	32.73963	314.61810	47.52010	808.88947	-424.31256	-36.58715	549.22858	-407.25244	118.49969	554.65674	-395.25803	-114.10495	560.32306	473.60983	34.74868	560.49622	486.54269	
1773	17.720	-211.60542	20.35582	-274.80670	308.86978	25.30757	-175.75737	-198.91321	18.12621	219.91357	311.92062	32.81572	314.66650	47.17925	808.84186	-423.49026	-37.00188	549.23035	-406.48035	118.11528	554.69147	-395.00003	-114.30989	560.15979	474.05368	34.86938	560.41986	486.93143	
1774	17.730	-211.64787	20.36012	-274.77438	308.82306	25.38432	-175.73882	-198.84439	18.06909	220.00291	311.91394	32.81865	314.69568	46.90029	808.97156	-422.93167	-37.20710	549.29572	-406.11826	117.86730	554.35242	-393.96814	-114.37884	560.07214	474.82788	34.92949	560.26184	487.64603	
1775	17.740	-211.60400	20.29301	-274.75998	308.88397	25.47959	-175.70964	-198.82594	18.05186	220.12787	311.91165	32.79536	314.66000	46.51286	809.06927	-422.59671	-37.36919	549.40308	-405.52814	117.65634	554.70441	-393.77567	-114.58398	559.95331	475.60306	35.07323	560.12183	488.32553	
1776	17.750	-211.75427	20.35945	-274.71420	308.84332	25.45098	-175.68723	-198.84909	18.00706	220.19801	311.79904	32.72158	314.71393	46.21859	809.14429	-421.47830	-37.57935	549.33954	-404.69672	117.54028	554.85126	-393.08841	-112.76044	559.89252	476.27844	35.09129	559.95337	488.77371	
1777	17.760	-211.70116	20.36527	-274.68210	308.87186	25.51152	-175.66768	-198.84767	18.05277	220.24702	311.88409	32.80569	314.74469	46.29454	809.25977	-420.92215	-37.61921	549.33917	-404.01941	117.60379	554.91498	-392.48108	-112.74425	559.86511	476.92926	35.17360	559.80048	489.54904	
1778	17.770	-211.66887	20.37993	-274.66064	308.87915	25.56646	-175.62929	-198.80998	18.10114	220.23090	311.89288	32.77451	314.78354	46.30779	809.39508	-420.34470	-37.74811	549.66388	-403.49313	117.31740	555.01886	-391.99908	-112.74511	559.63147	477.51413	34.93622	559.72949	490.18558	
1779	17.780	-211.65042	20.42936	-274.64456	308.91449	25.58126	-175.60417	-198.90239	18.17540	220.28111	311.90958	32.83421	314.78622	46.17766	809.46338	-419.54678	-37.69582	549.75958	-403.07416	117.30402	555.03540	-391.20551	-112.66490	559.52747	478.20831	35.24979	559.70776	491.12714	
1780	17.790	-211.65858	20.44129	-274.61136	308.88724	25.54720	-175.57930	-198.89485	18.11273	220.34222	311.78598	32.73786	314.80850	46.21184	809.57172	-418.98633	-37.72075	549.92139	-402.44888	117.29451	555.14075	-390.65921	-112.92110	559.37506	479.00604	35.22496	559.54669	491.70651	
1781	17.800	-211.61272	20.39160	-274.63519	308.81757	25.51239	-175.59462	-198.90181	18.01271	220.38522	311.70758	32.72503	314.79822	46.14660	809.57715	-418.22177	-37.56444	549.75305	-401.45313	117.32103	555.19159	-389.93777	-113.11346	559.32886	479.54486	35.09418	559.39313	492.40363	
1782	17.810	-211.66441	20.41776	-274.55850	308.82556	25.44742	-175.54880	-198.91872	17.92100	220.42770	311.76044	32.74274	314.85983	46.29982	809.59454	-417.29605	-37.83202	549.81512	-400.97711	117.38950	555.16522	-389.16476	-113.06052	559.21191	480.13132	34.43353	559.35358	492.53345	
1783	17.820	-211.60388	20.40980	-274.55383	308.81570	25.45301	-175.50488	-198.88530	17.92295	220.48148	311.64844	32.70155	314.88397	46.17838	809.74091	-416.99460	-38.02790	550.02606	-400.44940	117.26333	555.27301	-388.64279	-112.94868	559.04126	480.87134	34.59997	559.17120	493.48926	
1784	17.830	-211.57951	20.46737	-274.52811	308.85608	25.43247	-175.44345	-198.85057	17.91357	220.48050	311.69550	32.67672	314.91806	46.25309	809.71082	-416.18689	-38.02473	550.17694	-399.85941	117.27288	555.21973	-388.06503	-112.98016	558.98682	481.49966	34.61504	559.00000	493.92276	
1785	17.840	-211.67950	20.46678	-274.50290	308.82471	25.42807	-175.40082	-198.99124	17.98346	220.48759	311.60190	32.65768	314.89218	46.22341	809.61304	-415.29620	-37.81804	549.84125	-398.87888	117.30070	555.13403	-387.30191	-113.30383	559.00867	482.04517	34.35007	559.00250	494.51886	
1786	17.850	-211.60995	20.46301	-274.48779	309.18097	25.54947	-175.15546	-198.98688	18.00025	220.45950	311.65292	32.74252	314.94125	46.27475	809.58380	-414.83319	-37.96412	549.76593	-398.29779	117.12550	555.07916	-386.65454	-113.36620	559.04401	482.78043	34.38006	558.98401	495.34967	
1787	17.860	-211.70688	20.45171	-274.41153	308.86853	25.57833	-175.25497	-198.94431	17.90241	220.51169	311.58286	32.70385	314.98605	46.09946	809.51270	-414.35812	-38.03975	549.68549	-397.86923	117.05102	555.02362	-385.93619	-113.27557	559.02399	483.51022	34.37448	559.07501	495.91309	
1788	17.870	-211.66412	20.46360	-274.39584	308.86172	25.51591	-175.19449	-198.94977	17.90470	220.55042	311.60754	32.70958	315.00458	46.41544	809.27716	-413.37665	-38.01468	549.59454	-397.21109	116.85667	554.92755	-385.43655	-113.20967	559.09271	484.03033	34.43903	559.04474	496.65125	
1789	17.880	-211.65565	20.48006	-274.31268	308.87878	25.60966	-175.12970	-198.93860	17.86132	220.50755	311.67633	32.77496	315.04178	46.38395	809.20465	-412.93591	-38.01702	549.52142	-396.15598	117.03776	554.89319	-384.79840	-113.03980	559.07013	484.79889	34.64376	559.01874	497.28940	
1790	17.890	-211.67116	20.48618	-274.24536	308.90701	25.60403	-175.05019	-199.00143	17.96543	220.51543	311.56485	32.68420	315.01648	46.31010	809.16473	-412.40039	-38.25830	549.70380	-395.57800	117.11544	554.78387	-384.06616	-112.96600	559.02087	485.54086	34.80680	558.96625	497.89999	
1791	17.900	-211.63950	20.45413	-274.17255	308.90948	25.60963	-174.99275	-198.98630	17.97057	220.52283	311.64331	32.71270	315.07172	46.16251	809.21057	-411.57339	-38.30473	549.68744	-395.10406	116.85661	554.68262	-383.43756	-112.90882	559.00525	486.11398	34.84819	558.85498	498.60617	
1792	17.910	-211.63472	20.40213	-274.13995	308.91144	25.55359	-174.94835	-198.95804	17.98715	220.61932	311.70789	32.68495	315.09366	46.39550	809.05695	-410.78775	-38.36406	549.65320	-394.49713	116.81680	554.57892	-382.81409	-112.76335	558.88135	486.93689	34.87738	558.79346	499.24097	
